
<svg width="20" height="22" viewBox="0 0 20 22" fill="none" xmlns="http://www.w3.org/2000/svg">
<path d="M1 4.91125H2.95556H18.6" stroke="#868686" stroke-width="1.95556" stroke-linecap="round" stroke-linejoin="round"/>
<path d="M5.88841 4.91111V2.95556C5.88841 2.43691 6.09444 1.93951 6.46118 1.57277C6.82792 1.20603 7.32532 1 7.84397 1H11.7551C12.2737 1 12.7711 1.20603 13.1379 1.57277C13.5046 1.93951 13.7106 2.43691 13.7106 2.95556V4.91111M16.644 4.91111V18.6C16.644 19.1186 16.4379 19.616 16.0712 19.9828C15.7045 20.3495 15.2071 20.5556 14.6884 20.5556H4.91063C4.39199 20.5556 3.89458 20.3495 3.52785 19.9828C3.16111 19.616 2.95508 19.1186 2.95508 18.6V4.91111H16.644Z" stroke="#868686" stroke-width="1.95556" stroke-linecap="round" stroke-linejoin="round"/>
<path d="M7.84375 9.80005V15.6667" stroke="#868686" stroke-width="1.95556" stroke-linecap="round" stroke-linejoin="round"/>
<path d="M11.7559 9.80005V15.6667" stroke="#868686" stroke-width="1.95556" stroke-linecap="round" stroke-linejoin="round"/>
</svg>