<?xml version="1.0" encoding="UTF-8" standalone="no"?>
<!DOCTYPE svg PUBLIC "-//W3C//DTD SVG 1.1//EN" "http://www.w3.org/Graphics/SVG/1.1/DTD/svg11.dtd">
<svg width="100%" height="100%" viewBox="0 0 199 102" version="1.1" xmlns="http://www.w3.org/2000/svg" xmlns:xlink="http://www.w3.org/1999/xlink" xml:space="preserve" xmlns:serif="http://www.serif.com/" style="fill-rule:evenodd;clip-rule:evenodd;stroke-linejoin:round;stroke-miterlimit:2;">
    <g transform="matrix(1,0,0,1,-2559.89,-528.816)">
        <g id="Page-2" serif:id="Page 2" transform="matrix(1,0,0,1,2160,0)">
            <rect x="0" y="0" width="1920" height="1080" style="fill:none;"/>
            <g transform="matrix(1,0,0,1,0,79.47)">
                <rect x="399.893" y="449.346" width="198.107" height="101.838" style="fill:rgb(233,78,15);"/>
            </g>
            <g transform="matrix(1,0,0,1,443.874,585.033)">
                <path d="M0,-11.719L2.656,-11.719L5.893,-5.034C6.12,-4.539 6.376,-3.945 6.504,-3.516L6.532,-3.516C6.532,-3.978 6.518,-4.456 6.518,-5.018L6.518,-11.719L8.719,-11.719L8.719,0L6.163,0L2.812,-6.751C2.57,-7.279 2.343,-7.758 2.215,-8.187L2.187,-8.187C2.187,-7.708 2.201,-7.213 2.201,-6.635L2.201,0L0,0L0,-11.719Z" style="fill:white;fill-rule:nonzero;"/>
            </g>
            <g transform="matrix(1,0,0,1,454.142,579.173)">
                <path d="M0,0C0,-3.78 1.945,-6.14 4.97,-6.14C7.995,-6.14 9.94,-3.78 9.94,0C9.94,3.78 7.995,6.14 4.97,6.14C1.945,6.14 0,3.763 0,0M7.47,0C7.47,-2.476 6.546,-3.961 4.97,-3.961C3.394,-3.961 2.457,-2.476 2.457,0C2.457,2.459 3.394,3.961 4.97,3.961C6.546,3.961 7.47,2.476 7.47,0" style="fill:white;fill-rule:nonzero;"/>
            </g>
            <g transform="matrix(1,0,0,1,469.48,577.803)">
                <path d="M0,2.74L-1.448,2.74L-1.448,7.23L-3.848,7.23L-3.848,-4.49L0.582,-4.49C3.138,-4.49 4.274,-3.037 4.274,-0.891C4.274,0.578 3.607,1.816 2.3,2.327L4.53,7.23L1.931,7.23L0,2.74ZM-1.448,0.825L0.099,0.825C1.264,0.825 1.775,0.165 1.775,-0.891C1.775,-1.915 1.278,-2.525 0.099,-2.525L-1.448,-2.525L-1.448,0.825Z" style="fill:white;fill-rule:nonzero;"/>
            </g>
            <g transform="matrix(1,0,0,1,474.507,585.033)">
                <path d="M0,-11.719L2.414,-11.719L3.706,-4.11C3.763,-3.747 3.777,-3.45 3.792,-3.136L3.834,-3.136C3.848,-3.45 3.877,-3.747 3.948,-4.11L5.368,-11.719L7.768,-11.719L9.202,-4.11C9.273,-3.747 9.301,-3.45 9.316,-3.136L9.358,-3.136C9.372,-3.45 9.387,-3.747 9.443,-4.11L10.736,-11.719L13.15,-11.719L10.75,0L8.066,0L6.674,-7.956C6.632,-8.22 6.617,-8.5 6.603,-8.814L6.546,-8.814C6.532,-8.5 6.504,-8.22 6.461,-7.956L5.07,0L2.4,0L0,-11.719Z" style="fill:white;fill-rule:nonzero;"/>
            </g>
            <g transform="matrix(1,0,0,1,496.072,575.376)">
                <path d="M0,7.593L0,9.656L-7.001,9.656L-7.001,-2.063L-0.099,-2.063L-0.099,0L-4.601,0L-4.601,2.641L-0.341,2.641L-0.341,4.688L-4.601,4.688L-4.601,7.593L0,7.593Z" style="fill:white;fill-rule:nonzero;"/>
            </g>
            <g transform="matrix(1,0,0,1,497.124,579.156)">
                <path d="M0,0.033C0,-3.648 1.903,-6.124 4.999,-6.124C7.64,-6.124 9.074,-4.473 9.387,-2.525L7.015,-2.014C6.845,-3.12 6.22,-4.027 4.984,-4.027C3.38,-4.027 2.457,-2.476 2.457,0C2.457,2.459 3.323,4.011 5.013,4.011C6.546,4.011 7.242,2.624 7.242,1.601L7.242,1.353L4.757,1.353L4.757,-0.644L9.429,-0.644L9.429,5.876L7.725,5.876L7.626,4.159C7.114,5.414 5.993,6.157 4.473,6.157C1.69,6.157 0,3.747 0,0.033" style="fill:white;fill-rule:nonzero;"/>
            </g>
            <g transform="matrix(1,0,0,1,0,78.345)">
                <rect x="508.414" y="494.968" width="2.4" height="11.719" style="fill:white;"/>
            </g>
            <g transform="matrix(1,0,0,1,519.037,576.054)">
                <path d="M0,6.239L-3.721,6.239L-4.487,8.979L-6.887,8.979L-3.224,-2.74L-0.483,-2.74L3.181,8.979L0.767,8.979L0,6.239ZM-0.554,4.275L-1.477,1.007C-1.619,0.495 -1.747,0.049 -1.846,-0.644L-1.874,-0.644C-1.974,0.049 -2.102,0.495 -2.244,1.007L-3.167,4.275L-0.554,4.275Z" style="fill:white;fill-rule:nonzero;"/>
            </g>
            <g transform="matrix(1,0,0,1,523.539,585.033)">
                <path d="M0,-11.719L2.656,-11.719L5.893,-5.034C6.12,-4.539 6.376,-3.945 6.504,-3.516L6.532,-3.516C6.532,-3.978 6.518,-4.456 6.518,-5.018L6.518,-11.719L8.719,-11.719L8.719,0L6.163,0L2.812,-6.751C2.57,-7.279 2.343,-7.758 2.215,-8.187L2.187,-8.187C2.187,-7.708 2.201,-7.213 2.201,-6.635L2.201,0L0,0L0,-11.719Z" style="fill:white;fill-rule:nonzero;"/>
            </g>
            <g transform="matrix(1,0,0,1,452.034,599.737)">
                <path d="M0,-7.505L-2.808,-7.505L-2.808,2.09L-5.352,2.09L-5.352,-7.505L-8.16,-7.505L-8.16,-9.595L0,-9.595L0,-7.505Z" style="fill:white;fill-rule:nonzero;"/>
            </g>
            <g transform="matrix(1,0,0,1,457.013,594.767)">
                <path d="M0,2.436L-1.281,2.436L-1.281,7.061L-3.826,7.061L-3.826,-4.625L0.328,-4.625C3.037,-4.625 4.22,-3.275 4.22,-1.119C4.22,0.412 3.546,1.498 2.348,1.975L4.449,7.061L1.724,7.061L0,2.436ZM-0.049,0.774C1.067,0.774 1.543,0.066 1.543,-1.119C1.543,-2.271 1.084,-2.864 -0.049,-2.864L-1.281,-2.864L-1.281,0.774L-0.049,0.774Z" style="fill:white;fill-rule:nonzero;"/>
            </g>
            <g transform="matrix(1,0,0,1,468.69,592.858)">
                <path d="M0,6.254L-3.218,6.254L-3.875,8.97L-6.436,8.97L-3.152,-2.716L-0.049,-2.716L3.218,8.97L0.657,8.97L0,6.254ZM-0.443,4.427L-1.264,0.987C-1.379,0.444 -1.494,-0.017 -1.593,-0.691L-1.625,-0.691C-1.708,-0.017 -1.822,0.444 -1.954,0.987L-2.775,4.427L-0.443,4.427Z" style="fill:white;fill-rule:nonzero;"/>
            </g>
            <g transform="matrix(1,0,0,1,471.326,601.827)">
                <path d="M0,-11.685L2.676,-11.685L4.318,-4.114C4.466,-3.374 4.548,-2.863 4.597,-2.337L4.663,-2.337C4.712,-2.863 4.794,-3.374 4.942,-4.114L6.584,-11.685L9.26,-11.685L6.173,0L3.087,0L0,-11.685Z" style="fill:white;fill-rule:nonzero;"/>
            </g>
            <g transform="matrix(1,0,0,1,488.52,592.068)">
                <path d="M0,7.834L0,9.76L-6.797,9.76L-6.797,-1.926L-0.115,-1.926L-0.115,0L-4.252,0L-4.252,2.814L-0.361,2.814L-0.361,4.723L-4.252,4.723L-4.252,7.834L0,7.834Z" style="fill:white;fill-rule:nonzero;"/>
            </g>
            <g transform="matrix(1,0,0,1,490.165,601.827)">
                <path d="M0,-11.685L2.545,-11.685L2.545,-2.139L6.37,-2.139L6.37,0L0,0L0,-11.685Z" style="fill:white;fill-rule:nonzero;"/>
            </g>
            <g transform="matrix(1,0,0,1,500.261,595.705)">
                <path d="M0,0C0,-4.543 1.773,-6.123 4.564,-6.123C7.109,-6.123 8.702,-4.707 8.767,-1.843L6.239,-1.383C6.157,-3.489 5.615,-4.082 4.548,-4.082C3.349,-4.082 2.611,-3.144 2.611,-0.016C2.611,3.111 3.3,4.065 4.564,4.065C5.566,4.065 6.157,3.341 6.272,1.35L8.784,1.893C8.587,4.658 6.994,6.123 4.548,6.123C1.593,6.123 0,4.608 0,0" style="fill:white;fill-rule:nonzero;"/>
            </g>
            <g transform="matrix(1,0,0,1,510.121,595.689)">
                <path d="M0,0.016C0,-4.362 1.74,-6.123 4.646,-6.123C7.536,-6.123 9.276,-4.362 9.276,0.016C9.276,4.377 7.536,6.139 4.646,6.139C1.74,6.139 0,4.377 0,0.016M6.633,0.016C6.633,-3.177 5.911,-4.099 4.646,-4.099C3.366,-4.099 2.627,-3.177 2.627,0.016C2.627,3.176 3.366,4.131 4.646,4.131C5.911,4.131 6.633,3.176 6.633,0.016" style="fill:white;fill-rule:nonzero;"/>
            </g>
            <g transform="matrix(1,0,0,1,520.89,601.828)">
                <path d="M0,-11.686L3.481,-11.686L5.024,-5.07C5.155,-4.477 5.238,-3.934 5.27,-3.506L5.32,-3.506C5.352,-3.934 5.435,-4.494 5.566,-5.086L7.076,-11.686L10.557,-11.686L10.557,0L8.291,0L8.291,-6.93C8.291,-7.621 8.308,-8.477 8.341,-9.168L8.291,-9.168C8.242,-8.723 8.16,-8.263 8.062,-7.736L6.272,0L4.252,0L2.414,-7.736C2.299,-8.263 2.2,-8.839 2.184,-9.151L2.118,-9.151C2.167,-8.493 2.167,-7.637 2.167,-6.93L2.167,0L0,0L0,-11.686Z" style="fill:white;fill-rule:nonzero;"/>
            </g>
            <g transform="matrix(1,0,0,1,541.314,598.19)">
                <path d="M0,-4.411C0,-2.041 -1.396,-0.691 -3.776,-0.691L-5.467,-0.691L-5.467,3.637L-8.012,3.637L-8.012,-8.048L-3.793,-8.048C-1.396,-8.048 0,-6.682 0,-4.411M-2.676,-4.411C-2.676,-5.662 -3.218,-6.254 -4.252,-6.254L-5.467,-6.254L-5.467,-2.485L-4.252,-2.485C-3.234,-2.485 -2.676,-3.144 -2.676,-4.411" style="fill:white;fill-rule:nonzero;"/>
            </g>
            <g transform="matrix(1,0,0,1,547.152,592.858)">
                <path d="M0,6.254L-3.218,6.254L-3.875,8.97L-6.436,8.97L-3.152,-2.716L-0.049,-2.716L3.218,8.97L0.657,8.97L0,6.254ZM-0.443,4.427L-1.264,0.987C-1.379,0.444 -1.494,-0.017 -1.593,-0.691L-1.625,-0.691C-1.708,-0.017 -1.822,0.444 -1.954,0.987L-2.775,4.427L-0.443,4.427Z" style="fill:white;fill-rule:nonzero;"/>
            </g>
            <g transform="matrix(1,0,0,1,551.36,601.828)">
                <path d="M0,-11.686L2.775,-11.686L5.714,-5.596C5.993,-5.004 6.157,-4.461 6.288,-3.654L6.321,-3.654C6.288,-4.428 6.288,-5.201 6.288,-5.991L6.288,-11.686L8.62,-11.686L8.62,0L6.058,0L2.939,-6.386C2.611,-7.078 2.463,-7.654 2.348,-8.345L2.315,-8.345C2.331,-7.736 2.348,-6.88 2.348,-6.09L2.348,0L0,0L0,-11.686Z" style="fill:white;fill-rule:nonzero;"/>
            </g>
            <g transform="matrix(1,0,0,1,564.143,594.355)">
                <path d="M0,3.259L-3.185,-4.213L-0.509,-4.213L1.018,-0.115C1.133,0.297 1.215,0.659 1.264,1.086L1.313,1.086C1.363,0.659 1.428,0.297 1.56,-0.115L3.054,-4.213L5.73,-4.213L2.561,3.259L2.561,7.472L0,7.472L0,3.259Z" style="fill:white;fill-rule:nonzero;"/>
            </g>
            <g transform="matrix(1,0,0,1,432.802,546.417)">
                <path d="M0,37.955L0.78,37.955L3.601,27.908C5.382,21.657 8.092,19.35 14.514,19.35L24.648,19.35L24.648,18.606L14.737,18.606C8.315,18.606 6.904,16.299 8.575,10.084L11.396,0L10.616,0L7.832,10.047C6.013,16.522 3.341,18.606 -3.267,18.606L-13.215,18.606L-13.215,19.35L-3.489,19.35C3.118,19.35 4.491,21.843 2.821,27.871L0,37.955Z" style="fill:white;fill-rule:nonzero;"/>
            </g>
        </g>
    </g>
</svg>
